<?xml version="1.0" standalone="no"?>
<!DOCTYPE svg PUBLIC "-//W3C//DTD SVG 20010904//EN"
 "http://www.w3.org/TR/2001/REC-SVG-20010904/DTD/svg10.dtd">
<svg version="1.0" xmlns="http://www.w3.org/2000/svg"
 width="700.000000pt" height="700.000000pt" viewBox="0 0 700.000000 700.000000"
 preserveAspectRatio="xMidYMid meet">
<metadata>
Created by potrace 1.11, written by Peter Selinger 2001-2013
</metadata>
<g transform="translate(0.000000,700.000000) scale(0.100000,-0.100000)"
fill="#000000" stroke="none">
<path d="M1169 6264 c-6 -97 10 -4556 16 -4563 3 -2 5 394 6 880 0 840 8 2948
12 3409 l2 215 85 -1 c1172 -17 1828 -30 1970 -39 161 -10 248 -16 280 -20
109 -13 140 -17 190 -26 615 -115 1203 -383 1415 -645 l39 -49 -44 38 c-198
166 -559 346 -910 455 -167 52 -481 110 -680 127 -19 2 -69 6 -110 9 -153 14
-179 15 -370 22 -107 5 -555 8 -995 8 l-800 1 0 -2785 0 -2785 805 0 c691 1
1004 6 1185 20 43 3 183 14 252 20 39 3 112 11 173 20 81 12 281 47 315 56 22
6 48 13 57 14 91 18 368 109 483 159 616 269 1008 678 1220 1275 27 76 62 194
68 231 3 14 10 43 15 65 6 22 13 51 16 65 2 14 9 52 15 85 6 33 13 83 16 110
4 28 8 57 10 65 2 8 7 47 11 85 4 39 8 84 10 100 7 70 16 279 16 390 1 113
-10 399 -17 434 -1 9 -6 50 -10 91 -4 41 -9 84 -11 95 -2 11 -7 40 -10 65 -22
174 -102 502 -153 625 -61 148 -80 192 -114 260 -198 400 -576 813 -932 1019
-161 93 -434 198 -661 255 -137 35 -131 34 -329 66 -139 22 -176 27 -310 40
-90 9 -292 24 -425 31 -169 10 -1800 16 -1801 8z m2006 -808 c22 -2 76 -7 120
-10 97 -7 156 -13 250 -26 367 -50 797 -231 1015 -427 118 -105 278 -323 347
-469 27 -60 34 -83 28 -110 -6 -33 -5 -34 20 -28 41 10 58 -45 57 -181 -1 -60
-4 -120 -6 -132 -3 -13 -1 -23 4 -23 5 0 11 14 15 30 4 17 13 30 20 30 29 0
65 -184 82 -410 10 -131 10 -616 1 -730 -7 -90 -36 -315 -43 -340 -2 -8 -7
-31 -10 -50 -3 -19 -15 -71 -26 -115 -145 -573 -482 -956 -1014 -1153 -113
-42 -227 -77 -280 -86 -16 -3 -41 -8 -55 -11 -26 -5 -33 -6 -165 -24 -120 -15
-162 -20 -255 -27 -47 -3 -101 -8 -120 -9 -196 -19 -883 -27 -1034 -12 -43 4
-90 13 -103 20 -23 13 -23 14 -6 30 24 21 107 33 298 42 115 5 175 7 610 20
292 9 459 20 615 41 317 44 632 169 857 339 269 204 499 569 589 935 21 90 27
118 39 208 3 20 7 51 10 67 3 17 7 57 10 90 3 33 8 80 11 105 26 223 23 782
-5 812 -4 4 -8 -59 -9 -140 -5 -268 -12 -496 -17 -562 -8 -101 -22 -237 -29
-270 -1 -8 -6 -37 -10 -65 -15 -95 -67 -280 -107 -385 -100 -257 -236 -461
-410 -616 -81 -72 -94 -81 -183 -139 -226 -147 -548 -274 -761 -300 -27 -4
-57 -8 -65 -10 -13 -4 -64 -8 -214 -20 -57 -4 -306 -15 -481 -20 -349 -11
-590 -18 -670 -19 l-90 -1 0 2075 c-1 1141 1 2079 3 2084 5 8 1080 1 1167 -8z"/>
<path d="M5858 1873 c-37 -23 -213 -294 -363 -558 -180 -319 -286 -521 -305
-587 -7 -21 -2 -34 20 -65 16 -21 43 -49 61 -63 147 -116 367 -254 593 -371
162 -84 200 -89 251 -35 40 42 137 189 275 416 246 404 263 459 207 690 -55
227 -82 263 -309 404 -284 177 -365 209 -430 169z m262 -185 c130 -73 256
-156 284 -187 16 -17 14 -25 -29 -125 -62 -145 -57 -162 61 -237 33 -21 67
-50 74 -64 13 -25 11 -33 -33 -118 -87 -169 -304 -527 -395 -650 l-43 -57 -37
15 c-59 25 -229 121 -359 203 -37 24 -77 48 -88 55 -11 7 -22 14 -25 17 -3 3
-43 31 -90 63 -110 74 -150 110 -149 133 0 18 12 43 87 184 34 64 225 392 270
465 14 22 35 56 47 75 85 135 181 279 202 302 24 25 26 26 61 11 20 -8 93 -47
162 -85z"/>
<path d="M5901 1641 c-33 -35 -91 -152 -91 -184 0 -27 21 -48 107 -106 74 -49
114 -60 145 -38 31 20 117 165 124 209 6 33 3 37 -37 65 -60 40 -160 83 -194
83 -17 0 -37 -11 -54 -29z m117 -57 c29 -20 55 -71 54 -105 -1 -37 -29 -89
-48 -89 -30 0 -123 51 -129 71 -10 31 58 139 88 139 7 0 23 -7 35 -16z"/>
<path d="M5704 1308 c-50 -57 -114 -176 -114 -212 0 -18 13 -33 53 -59 122
-80 187 -98 227 -62 31 28 90 153 90 191 0 45 -27 73 -117 122 -92 48 -112 51
-139 20z m144 -116 c37 -32 40 -52 11 -98 -28 -46 -48 -55 -84 -39 -59 25 -84
75 -64 129 22 61 71 64 137 8z"/>
<path d="M5497 952 c-14 -15 -51 -67 -82 -116 l-56 -90 28 -23 c59 -50 112
-83 132 -83 28 0 26 11 -9 67 -24 37 -29 54 -24 78 9 42 51 105 70 105 25 0
120 -68 132 -95 9 -19 19 -25 42 -25 27 0 30 3 30 30 0 41 -59 104 -131 140
-82 42 -102 43 -132 12z"/>
<path d="M5553 784 c-3 -8 3 -45 14 -82 l19 -67 75 1 c83 1 196 33 223 63 16
17 16 19 -1 23 -10 3 -38 3 -63 2 -124 -9 -175 0 -187 33 -15 39 -68 57 -80
27z"/>
<path d="M1181 1674 c0 -11 3 -14 6 -6 3 7 2 16 -1 19 -3 4 -6 -2 -5 -13z"/>
</g>
</svg>
